<svg xmlns="http://www.w3.org/2000/svg" xmlns:xlink="http://www.w3.org/1999/xlink" viewBox="0 0 200 200"><defs><style>.cls-1{fill:url(#linear-gradient);}.cls-2{fill:url(#linear-gradient-2);}.cls-3{fill:url(#linear-gradient-3);}</style><linearGradient id="linear-gradient" x1="167.58" y1="14.97" x2="32" y2="185.42" gradientUnits="userSpaceOnUse"><stop offset="0" stop-color="#7048a8"/><stop offset="0.1" stop-color="#7950b1"/><stop offset="0.14" stop-color="#7f54b7"/><stop offset="0.29" stop-color="#9d4e99"/><stop offset="0.29" stop-color="#9e4d97"/><stop offset="0.38" stop-color="#b6426f"/><stop offset="0.42" stop-color="#bf3e60"/><stop offset="0.48" stop-color="#c63b56"/><stop offset="0.55" stop-color="#c93a51"/><stop offset="0.56" stop-color="#cb3a4f"/><stop offset="0.62" stop-color="#d33845"/><stop offset="0.69" stop-color="#d63742"/><stop offset="0.84" stop-color="#ea4d34"/><stop offset="1" stop-color="#f3ca46"/></linearGradient><linearGradient id="linear-gradient-2" x1="167.6" y1="14.99" x2="32.02" y2="185.44" xlink:href="#linear-gradient"/><linearGradient id="linear-gradient-3" x1="167.61" y1="15" x2="32.03" y2="185.45" xlink:href="#linear-gradient"/></defs><title>instagram_icon_1</title><g id="Layer_2" data-name="Layer 2"><g id="Layer_1-2" data-name="Layer 1"><path class="cls-1" d="M168.29,62.06A34.43,34.43,0,0,0,134.35,31.5c-11.46-.14-22.91,0-34.37,0H66.72c-1.41,0-2.83.06-4.24.19A31.91,31.91,0,0,0,48.81,36C37.46,42.87,31.55,53,31.47,66.26c-.12,22.49,0,45,0,67.47a36.19,36.19,0,0,0,.8,7.69,34.31,34.31,0,0,0,33.39,27.1c22.68.09,45.36,0,68,0a37.77,37.77,0,0,0,4.64-.28A33,33,0,0,0,156,160.61a33.74,33.74,0,0,0,12.49-26.78q.08-33.81,0-67.63A35.77,35.77,0,0,0,168.29,62.06ZM99.87,143.63A43.62,43.62,0,1,1,143.6,100,43.75,43.75,0,0,1,99.87,143.63Zm46.8-81a9.35,9.35,0,1,1,9.39-9.34A9.38,9.38,0,0,1,146.67,62.63Z"/><path class="cls-2" d="M100,68.85A31.16,31.16,0,1,0,131.14,100,31.07,31.07,0,0,0,100,68.85Z"/><path class="cls-3" d="M152.83,0H47.17A47.17,47.17,0,0,0,0,47.17V152.83A47.17,47.17,0,0,0,47.17,200H152.83A47.17,47.17,0,0,0,200,152.83V47.17A47.17,47.17,0,0,0,152.83,0ZM181,133.09c0,1.67-.06,3.34-.19,5a44.05,44.05,0,0,1-3.19,13.37,46.85,46.85,0,0,1-20.9,23.64,45.72,45.72,0,0,1-17.6,5.61c-1,.11-2,.19-3.06.29H63.94l-2-.19a45.24,45.24,0,0,1-15.32-4,46.85,46.85,0,0,1-21.88-20.35,45.44,45.44,0,0,1-5.45-17.29c-.11-1-.2-2-.3-3V63.86a5.58,5.58,0,0,0,.09-.59,43.58,43.58,0,0,1,1.39-8.93A46.61,46.61,0,0,1,39.28,27.39,44.65,44.65,0,0,1,65.16,19C88,19,110.92,19,133.8,19a46.5,46.5,0,0,1,12.26,1.58A45.84,45.84,0,0,1,166,31.68c9.66,9.18,14.84,20.45,14.94,33.78C181.09,88,181,110.55,181,133.09Z"/></g></g></svg>
